<svg width="75" height="20" viewBox="0 0 75 20" fill="none" xmlns="http://www.w3.org/2000/svg">
<path d="M32.8581 19.3321C29.2285 19.3321 27.4136 17.6049 27.4136 14.1505V9.10053H25.3621C25.1692 9.10053 25.0026 9.03914 24.8623 8.91641C24.7396 8.79365 24.6782 8.63586 24.6782 8.44297V6.31248C24.6782 6.11962 24.7396 5.9618 24.8623 5.83907C25.0026 5.71631 25.1692 5.65495 25.3621 5.65495H27.4136V1.31509C27.4136 1.1222 27.475 0.964392 27.5978 0.841649C27.738 0.718905 27.8959 0.657532 28.0712 0.657532H31.1222C31.3151 0.657532 31.4729 0.718905 31.5957 0.841649C31.7184 0.964392 31.7798 1.1222 31.7798 1.31509V5.65495H35.0675C35.2604 5.65495 35.4182 5.71631 35.5409 5.83907C35.6811 5.9618 35.7513 6.11962 35.7513 6.31248V8.44297C35.7513 8.63586 35.6811 8.79365 35.5409 8.91641C35.4182 9.03914 35.2604 9.10053 35.0675 9.10053H31.7798V13.7823C31.7798 15.0799 32.2796 15.7287 33.2789 15.7287H35.3042C35.4971 15.7287 35.6548 15.79 35.7776 15.9128C35.9006 16.0355 35.962 16.1933 35.962 16.3862V18.6745C35.962 18.8499 35.9006 19.0077 35.7776 19.1479C35.6548 19.2707 35.4971 19.3321 35.3042 19.3321H32.8581Z" fill="white"/>
<path d="M54.3114 19.3321C54.1185 19.3321 53.9607 19.2707 53.838 19.1479C53.7153 19.0252 53.6539 18.8674 53.6539 18.6745V6.31249C53.6539 6.11963 53.7153 5.96181 53.838 5.83908C53.9607 5.71632 54.1185 5.65496 54.3114 5.65496H57.3361C57.5289 5.65496 57.6867 5.71632 57.8094 5.83908C57.9497 5.96181 58.0198 6.11963 58.0198 6.31249V7.31197C58.4935 6.73333 59.0984 6.26866 59.8348 5.91798C60.5887 5.56726 61.4393 5.39194 62.3861 5.39194C63.9293 5.39194 65.1828 5.91798 66.1474 6.97005C67.1117 8.0046 67.5939 9.45999 67.5939 11.3362V18.6745C67.5939 18.8499 67.5325 19.0077 67.4098 19.1479C67.287 19.2707 67.1293 19.3321 66.9364 19.3321H63.6224C63.4471 19.3321 63.289 19.2707 63.1487 19.1479C63.026 19.0077 62.9646 18.8499 62.9646 18.6745V11.494C62.9646 10.6699 62.763 10.0386 62.3598 9.60028C61.9565 9.14437 61.378 8.91642 60.6237 8.91642C59.8874 8.91642 59.3088 9.14437 58.888 9.60028C58.4672 10.0386 58.2565 10.6699 58.2565 11.494V18.6745C58.2565 18.8499 58.1952 19.0077 58.0724 19.1479C57.9497 19.2707 57.7919 19.3321 57.5991 19.3321H54.3114Z" fill="white"/>
<path d="M70.7127 3.49818C70.8354 3.62094 70.9932 3.68231 71.186 3.68231H74.3425C74.5354 3.68231 74.6932 3.62094 74.8159 3.49818C74.9386 3.37546 75 3.21763 75 3.02475V0.657552C75 0.464672 74.9386 0.306858 74.8159 0.184114C74.6932 0.0613714 74.5354 0 74.3425 0H71.186C70.9932 0 70.8354 0.0613714 70.7127 0.184114C70.5899 0.306858 70.5286 0.464672 70.5286 0.657552V3.02475C70.5286 3.21763 70.5899 3.37546 70.7127 3.49818Z" fill="white"/>
<path d="M70.739 19.148C70.8617 19.2707 71.0195 19.3321 71.2127 19.3321H74.3162C74.5091 19.3321 74.6669 19.2707 74.7896 19.148C74.9123 19.0077 74.9737 18.8499 74.9737 18.6745V6.3125C74.9737 6.11964 74.9123 5.96182 74.7896 5.83909C74.6669 5.71633 74.5091 5.65497 74.3162 5.65497H71.2127C71.0195 5.65497 70.8617 5.71633 70.739 5.83909C70.6162 5.96182 70.5549 6.11964 70.5549 6.3125V18.6745C70.5549 18.8674 70.6162 19.0252 70.739 19.148Z" fill="white"/>
<path fill-rule="evenodd" clip-rule="evenodd" d="M15.4324 3.68085C15.5551 3.80361 15.7129 3.86498 15.9058 3.86498H19.0621C19.2549 3.86498 19.4128 3.80361 19.5355 3.68085C19.6582 3.55813 19.7196 3.4003 19.7196 3.20742V0.840233C19.7196 0.64735 19.6582 0.489535 19.5355 0.366791C19.4128 0.24405 19.2549 0.182678 19.0621 0.182678H15.9058C15.7129 0.182678 15.5551 0.24405 15.4324 0.366791C15.3096 0.489535 15.2482 0.64735 15.2482 0.840233V3.20742C15.2482 3.4003 15.3096 3.55813 15.4324 3.68085ZM15.4587 19.3306C15.5814 19.4534 15.7392 19.5148 15.9321 19.5148H19.0358C19.2286 19.5148 19.3865 19.4534 19.5092 19.3306C19.632 19.1904 19.6933 19.0325 19.6933 18.8572V6.4952C19.6933 6.30231 19.632 6.14449 19.5092 6.02176C19.3865 5.899 19.2286 5.83764 19.0358 5.83764H15.9321C15.7392 5.83764 15.5814 5.899 15.4587 6.02176C15.3359 6.14449 15.2745 6.30231 15.2745 6.4952V18.8572C15.2745 19.0501 15.3359 19.2079 15.4587 19.3306ZM2.78803 19.1728C3.75244 19.5761 4.94481 19.7778 6.36513 19.7778C8.43422 19.7778 10.0474 19.392 11.2047 18.6205C12.362 17.8314 12.9407 16.7881 12.9407 15.4905C12.9407 14.4735 12.5461 13.588 11.757 12.834C10.9855 12.08 9.74932 11.554 8.04844 11.2559C7.10159 11.0805 6.38266 10.9139 5.89169 10.7561C5.41825 10.5808 5.10263 10.4054 4.94481 10.2301C4.80451 10.0547 4.73438 9.83556 4.73438 9.57254C4.73438 9.23939 4.86591 8.96761 5.12893 8.75718C5.40948 8.54676 5.7777 8.44154 6.2336 8.44154C6.61938 8.44154 6.94377 8.50293 7.20679 8.62566C7.46981 8.74842 7.75036 8.92374 8.04844 9.1517C8.2238 9.29199 8.42546 9.42348 8.65341 9.54624C8.77614 9.63391 8.90766 9.67774 9.04796 9.67774H11.7834C11.9412 9.67774 12.0727 9.61637 12.1779 9.49365C12.3007 9.37089 12.362 9.23063 12.362 9.0728C12.362 8.61689 12.1165 8.11715 11.6256 7.57358C11.1521 7.01248 10.4507 6.53904 9.52136 6.15326C8.59205 5.76751 7.50487 5.57462 6.2599 5.57462C5.01494 5.57462 3.93656 5.77628 3.02475 6.17955C2.13047 6.58287 1.45539 7.10891 0.999481 7.7577C0.543578 8.40647 0.315626 9.09033 0.315626 9.80926C0.315626 10.949 0.70139 11.8608 1.47292 12.5447C2.26198 13.211 3.38422 13.6932 4.83961 13.9913C5.80399 14.1842 6.52292 14.3683 6.99636 14.5436C7.46981 14.7015 7.78542 14.868 7.94325 15.0434C8.1186 15.2187 8.20627 15.4555 8.20627 15.7535C8.20627 16.1218 8.03968 16.4111 7.70653 16.6215C7.39091 16.8144 6.97883 16.9109 6.47033 16.9109C6.04948 16.9109 5.69003 16.8495 5.39195 16.7267C5.1114 16.5864 4.77821 16.376 4.39247 16.0955C4.28724 16.0078 4.12945 15.8938 3.91903 15.7535C3.83133 15.6659 3.7349 15.622 3.62971 15.622H0.63125C0.473438 15.622 0.324393 15.6834 0.184115 15.8061C0.0613718 15.9114 0 16.0516 0 16.227C0 16.6654 0.227952 17.1651 0.683857 17.7262C1.13976 18.2873 1.84115 18.7695 2.78803 19.1728Z" fill="white"/>
<path d="M38.152 9.75626H41.8857C41.8857 8.58743 43.2925 8.29522 43.9961 8.29522C46.074 8.16535 46.2688 9.75626 46.1065 10.5679C44.6779 10.9576 42.4808 11.2714 41.561 11.3796C38.0545 11.8991 37.286 14.1935 37.3403 15.2757C37.3403 18.2628 39.3964 19.226 40.4247 19.3342L40.587 18.6848C39.0286 17.2563 39.5049 15.384 39.9377 14.6264C40.8468 15.1459 41.074 16.6827 41.074 17.3861L41.7234 16.0874C40.6844 14.6589 41.2906 12.7866 41.7234 12.029C42.5026 12.6783 42.4808 14.2476 42.3727 14.9511L43.5091 13.8147C44.2883 11.9965 46.2146 11.542 47.0805 11.542C46.561 12.8407 44.6997 13.9229 43.8338 14.3017L43.0221 15.2757C44.061 14.6264 44.9701 15.1134 45.2948 15.4381C44.3857 16.6069 42.8597 16.6827 42.2104 16.5744L41.7234 17.5485C42.6325 16.8991 43.5091 17.1697 43.8338 17.3861C43.0545 18.8147 41.7776 19.0636 41.2364 19.0095L41.074 19.4965C43.6714 19.7563 45.7276 18.5225 46.4312 17.8731V19.3342H50.6519V11.3796C50.6519 6.57444 46.7558 5.48136 44.8078 5.53548C39.7429 5.27574 38.2601 8.2411 38.152 9.75626Z" fill="white"/>
</svg>
